<svg id="3ce1dae1-d247-442b-82df-f40e0352c32c" data-name="Calque 1" xmlns="http://www.w3.org/2000/svg" viewBox="0 0 206.64 49.16"><defs><style>.\33 bb0d878-3ccf-4922-bc2a-75f50a283ae7{fill:#282525;}</style></defs><title>logo_morphean_2017</title><path class="3bb0d878-3ccf-4922-bc2a-75f50a283ae7" d="M4.05,13.81V6.2l12.5,8.93L29,6.2v7.61a7.93,7.93,0,0,1,3.07,4.28V0L16.55,11.07,1,0V18.09a8,8,0,0,1,3.07-4.28"/><path class="3bb0d878-3ccf-4922-bc2a-75f50a283ae7" d="M8.61,20a1.32,1.32,0,1,1,1.32-1.32A1.31,1.31,0,0,1,8.61,20m15.89-2.63a1.32,1.32,0,1,1-1.32,1.32,1.32,1.32,0,0,1,1.32-1.32m0,7.06a4.11,4.11,0,0,0,1.19-8l0,0v-4L16.55,18.9h0L7.39,12.36v4l0,0a4.12,4.12,0,0,0-2.8,5,4.07,4.07,0,0,0,3,3,4.12,4.12,0,0,0,5.1-4c0-.05,0-.11,0-.16l3.84,2.73h0l3.84-2.73c0,.05,0,.11,0,.16a4.11,4.11,0,0,0,4.11,4.11"/><path class="3bb0d878-3ccf-4922-bc2a-75f50a283ae7" d="M32.08,22.19a7.85,7.85,0,0,1-2.32,4,13.1,13.1,0,0,1,.11,1.69v4.67A13.29,13.29,0,0,1,16.58,45.85h-.06A13.29,13.29,0,0,1,3.23,32.56V27.89a13.11,13.11,0,0,1,.11-1.69,7.87,7.87,0,0,1-2.32-4,16.47,16.47,0,0,0-1,5.7v4.67A16.52,16.52,0,0,0,16.52,49.08h.06A16.52,16.52,0,0,0,33.1,32.56V27.89a15.2,15.2,0,0,0-1-5.7"/><path class="3bb0d878-3ccf-4922-bc2a-75f50a283ae7" d="M59.1,33.54V15.16l9.09,11,9.09-11V33.54H74.14V23.46l-6,7.25-5.95-7.25V33.54Z"/><path class="3bb0d878-3ccf-4922-bc2a-75f50a283ae7" d="M83.8,31.24a8.81,8.81,0,0,1-2.73-6.56,8.81,8.81,0,0,1,2.73-6.56,9.62,9.62,0,0,1,13.33,0,8.73,8.73,0,0,1,2.76,6.56,8.8,8.8,0,0,1-2.73,6.56,9.72,9.72,0,0,1-13.36,0Zm2.2-2a6.38,6.38,0,0,0,8.91,0,6.22,6.22,0,0,0,1.81-4.52,6.23,6.23,0,0,0-1.81-4.52,6.32,6.32,0,0,0-8.91,0,6.21,6.21,0,0,0-1.79,4.52A6.12,6.12,0,0,0,86,29.2Z"/><path class="3bb0d878-3ccf-4922-bc2a-75f50a283ae7" d="M103.63,33.54V15.74h6.92a5.6,5.6,0,0,1,4.08,1.63,5.31,5.31,0,0,1,1.69,4,5.37,5.37,0,0,1-3.24,5.06l4.31,7.1h-3.6L110,27.21h-3.17v6.33Zm3.19-9.19h3.4a2.79,2.79,0,0,0,2.93-2.91,2.67,2.67,0,0,0-2.68-2.81h-3.65Z"/><path class="3bb0d878-3ccf-4922-bc2a-75f50a283ae7" d="M120.65,33.54V15.74h6.79a5.82,5.82,0,0,1,4,1.61,5.42,5.42,0,0,1,1.76,4.19,5.43,5.43,0,0,1-1.76,4.14,5.65,5.65,0,0,1-4,1.63h-3.6v6.23Zm3.19-9.12h3.45a2.75,2.75,0,0,0,2.78-2.89,2.76,2.76,0,0,0-2.78-2.91h-3.45Z"/><path class="3bb0d878-3ccf-4922-bc2a-75f50a283ae7" d="M136.87,33.54V15.74h3.19v6.95h8.56V15.74h3.17v17.8h-3.17v-8h-8.56v8Z"/><path class="3bb0d878-3ccf-4922-bc2a-75f50a283ae7" d="M156.52,33.54V15.74h11.34v2.88h-8.15v4.24h7.64v2.89h-7.64v4.9H168v2.88Z"/><path class="3bb0d878-3ccf-4922-bc2a-75f50a283ae7" d="M170.47,33.54l8.81-18.67,8.78,18.67h-3.4l-1.58-3.45h-7.66l-1.58,3.45Zm6.15-6.21h5.26l-2.63-5.8Z"/><path class="3bb0d878-3ccf-4922-bc2a-75f50a283ae7" d="M191.32,33.54V15.08L203.45,27V15.74h3.19V34.2L194.51,22.36V33.54Z"/></svg>